<svg xmlns="http://www.w3.org/2000/svg" version="1.1" xmlns:xlink="http://www.w3.org/1999/xlink" xmlns:svgjs="http://svgjs.dev/svgjs" width="1500" height="1500" viewBox="0 0 1500 1500"><rect width="1500" height="1500" fill="#000000"></rect><g transform="matrix(0.6666666666666666,0,0,0.6666666666666666,249.39393939393938,642.70805406447)"><svg viewBox="0 0 396 85" data-background-color="#dbefed" preserveAspectRatio="xMidYMid meet" height="321" width="1500" xmlns="http://www.w3.org/2000/svg" xmlns:xlink="http://www.w3.org/1999/xlink"><g id="tight-bounds" transform="matrix(1,0,0,1,0.2400000000000091,0.11595983420582456)"><svg viewBox="0 0 395.52 84.76808033158835" height="84.76808033158835" width="395.52"><g><svg viewBox="0 0 395.52 84.76808033158835" height="84.76808033158835" width="395.52"><g><svg viewBox="0 0 576.3050638490204 123.51404214162348" height="84.76808033158835" width="395.52"><g transform="matrix(1,0,0,1,180.7850638490204,17.070319861830747)"><svg viewBox="0 0 395.52 89.37340241796198" height="89.37340241796198" width="395.52"><g id="textblocktransform"><svg viewBox="0 0 395.52 89.37340241796198" height="89.37340241796198" width="395.52" id="textblock"><g><svg viewBox="0 0 395.52 89.37340241796198" height="89.37340241796198" width="395.52"><g transform="matrix(1,0,0,1,0,0)"><svg width="395.52" viewBox="1.3 -38.7 173.67999999999998 39.25" height="89.37340241796198" data-palette-color="#0b2545"><path d="M11.5-19.25Q9.3-19.25 8.1-17.68 6.9-16.1 6.9-12.85 6.9-9.6 8.13-7.63 9.35-5.65 11.7-5.65L11.7-5.65Q12.9-5.65 14.05-6.4 15.2-7.15 15.8-7.9L15.8-7.9 16.35-8.7 18.85-6.1Q18.7-5.85 18.48-5.4 18.25-4.95 17.38-3.8 16.5-2.65 15.53-1.78 14.55-0.9 13-0.18 11.45 0.55 9.75 0.55L9.75 0.55Q6 0.55 3.65-2.5 1.3-5.55 1.3-10.45L1.3-10.45Q1.3-16.55 4.85-21.15 8.4-25.75 13.15-25.75L13.15-25.75Q14.6-25.75 16.05-25.33 17.5-24.9 19-24L19-24 15.5-17.85Q13.7-19.25 11.5-19.25ZM22.15-37.45L29-38.7 28.35-13 28.9-1.25 22.15 0 22.75-12.15 22.15-37.45ZM34.8-24.2L41.5-25.45 40.89-13 41.45-1.25 34.74 0 35.34-12.15 34.8-24.2ZM34.45-32.77Q34.45-34.45 35.74-35.77 37.05-37.1 38.74-37.1 40.45-37.1 41.34-36.18 42.25-35.25 42.25-33.4 42.25-31.55 40.97-30.23 39.7-28.9 38.02-28.9 36.34-28.9 35.39-30 34.45-31.1 34.45-32.77ZM55.59-19.25Q53.39-19.25 52.19-17.68 50.99-16.1 50.99-12.85 50.99-9.6 52.22-7.63 53.44-5.65 55.79-5.65L55.79-5.65Q56.99-5.65 58.14-6.4 59.29-7.15 59.89-7.9L59.89-7.9 60.44-8.7 62.94-6.1Q62.79-5.85 62.57-5.4 62.34-4.95 61.47-3.8 60.59-2.65 59.62-1.78 58.64-0.9 57.09-0.18 55.54 0.55 53.84 0.55L53.84 0.55Q50.09 0.55 47.74-2.5 45.39-5.55 45.39-10.45L45.39-10.45Q45.39-16.55 48.94-21.15 52.49-25.75 57.24-25.75L57.24-25.75Q58.69-25.75 60.14-25.33 61.59-24.9 63.09-24L63.09-24 59.59-17.85Q57.79-19.25 55.59-19.25ZM87.54-3.3L81.84 0.5 72.44-13.35 72.44-13 72.99-1.25 66.24 0 66.84-12.15 66.24-37.45 73.09-38.7 72.44-14.55 82.44-25.5 87.14-22.3 78.39-14.1 87.54-3.3ZM98.94-19.25Q96.74-19.25 95.54-17.68 94.34-16.1 94.34-12.85 94.34-9.6 95.56-7.63 96.79-5.65 99.14-5.65L99.14-5.65Q100.34-5.65 101.49-6.4 102.64-7.15 103.24-7.9L103.24-7.9 103.79-8.7 106.29-6.1Q106.14-5.85 105.91-5.4 105.69-4.95 104.81-3.8 103.94-2.65 102.96-1.78 101.99-0.9 100.44-0.18 98.89 0.55 97.19 0.55L97.19 0.55Q93.44 0.55 91.09-2.5 88.74-5.55 88.74-10.45L88.74-10.45Q88.74-16.55 92.29-21.15 95.84-25.75 100.59-25.75L100.59-25.75Q102.04-25.75 103.49-25.33 104.94-24.9 106.44-24L106.44-24 102.94-17.85Q101.14-19.25 98.94-19.25ZM109.59-37.45L116.44-38.7 115.78-13 116.34-1.25 109.59 0 110.19-12.15 109.59-37.45ZM122.23-24.2L128.93-25.45 128.33-13 128.88-1.25 122.18 0 122.78-12.15 122.23-24.2ZM121.88-32.77Q121.88-34.45 123.18-35.77 124.48-37.1 126.18-37.1 127.88-37.1 128.78-36.18 129.68-35.25 129.68-33.4 129.68-31.55 128.41-30.23 127.13-28.9 125.46-28.9 123.78-28.9 122.83-30 121.88-31.1 121.88-32.77ZM143.03-19.25Q140.83-19.25 139.63-17.68 138.43-16.1 138.43-12.85 138.43-9.6 139.66-7.63 140.88-5.65 143.23-5.65L143.23-5.65Q144.43-5.65 145.58-6.4 146.73-7.15 147.33-7.9L147.33-7.9 147.88-8.7 150.38-6.1Q150.23-5.85 150-5.4 149.78-4.95 148.91-3.8 148.03-2.65 147.06-1.78 146.08-0.9 144.53-0.18 142.98 0.55 141.28 0.55L141.28 0.55Q137.53 0.55 135.18-2.5 132.83-5.55 132.83-10.45L132.83-10.45Q132.83-16.55 136.38-21.15 139.93-25.75 144.68-25.75L144.68-25.75Q146.13-25.75 147.58-25.33 149.03-24.9 150.53-24L150.53-24 147.03-17.85Q145.23-19.25 143.03-19.25ZM174.98-3.3L169.28 0.5 159.88-13.35 159.88-13 160.43-1.25 153.68 0 154.28-12.15 153.68-37.45 160.53-38.7 159.88-14.55 169.88-25.5 174.58-22.3 165.83-14.1 174.98-3.3Z" opacity="1" transform="matrix(1,0,0,1,0,0)" fill="#ffffff" class="wordmark-text-0" data-fill-palette-color="primary" id="text-0"></path></svg></g></svg></g></svg></g></svg></g><g><svg viewBox="0 0 159.6861484997976 123.51404214162348" height="123.51404214162348" width="159.6861484997976"><g><svg xmlns="http://www.w3.org/2000/svg" xmlns:xlink="http://www.w3.org/1999/xlink" version="1.0" x="0" y="0" viewBox="0 11.326 100 77.34800000000001" enable-background="new 0 0 100 100" xml:space="preserve" height="123.51404214162348" width="159.6861484997976" class="icon-icon-0" data-fill-palette-color="accent" id="icon-0"><path d="M92.781 22.563c0 0-2.897-0.35-7.225-0.839l0.382-3.157-13.097-1.577-0.402 3.329c-0.759-0.074-1.521-0.151-2.284-0.227l-1.43-4.233c0-2.495-2.473-4.533-5.493-4.533H45.158c-3.02 0-5.492 2.038-5.492 4.533l-1.053 3.453c-8.612 0.7-18.949 1.831-25.303 2.555l-0.085 0.01c-2.899 0.179-5.176 0.405-6.985 0.798-0.281 0.048-0.553 0.118-0.824 0.193-0.093 0.026-0.174 0.056-0.264 0.085-0.203 0.064-0.412 0.112-0.605 0.195C1.01 24.406 0 26.901 0 32.445V78.84c0 1.146 0.07 2.225 0.227 3.223 0.077 0.9 0.311 1.75 0.69 2.527 0.781 1.848 2.159 3.17 4.421 3.748 0.651 0.199 1.329 0.336 2.043 0.336h85.4c3.969 0 7.219-3.25 7.219-7.219V29.778C100 25.811 96.75 22.563 92.781 22.563zM67.434 79.994c-13.571 0-24.577-11.006-24.577-24.58 0-13.573 11.006-24.578 24.577-24.578 13.576 0 24.58 11.005 24.58 24.578C92.014 68.988 81.01 79.994 67.434 79.994z" fill="#ffffff" data-fill-palette-color="accent"></path><path d="M83.367 55.621c0 8.801-7.134 15.934-15.934 15.934-8.797 0-15.931-7.133-15.931-15.934 0-8.797 7.134-15.929 15.931-15.929C76.233 39.692 83.367 46.824 83.367 55.621z" fill="#ffffff" data-fill-palette-color="accent"></path></svg></g></svg></g></svg></g></svg></g><defs></defs></svg><rect width="395.52" height="84.76808033158835" fill="none" stroke="none" visibility="hidden"></rect></g></svg></g></svg>